<?xml version="1.0" encoding="UTF-8" standalone="no"?>
<!-- Created with Inkscape (http://www.inkscape.org/) -->

<svg
   width="800"
   height="800"
   viewBox="0 0 211.66666 211.66667"
   version="1.1"
   id="svg5"
   inkscape:version="1.1.1 (3bf5ae0d25, 2021-09-20)"
   sodipodi:docname="logo.svg"
   inkscape:export-filename="M:\_git\satisfactory-clips-archive\media-search-archive\images-ref\logo.png"
   inkscape:export-xdpi="96"
   inkscape:export-ydpi="96"
   xmlns:inkscape="http://www.inkscape.org/namespaces/inkscape"
   xmlns:sodipodi="http://sodipodi.sourceforge.net/DTD/sodipodi-0.dtd"
   xmlns="http://www.w3.org/2000/svg"
   xmlns:svg="http://www.w3.org/2000/svg">
  <sodipodi:namedview
     id="namedview7"
     pagecolor="#505050"
     bordercolor="#eeeeee"
     borderopacity="1"
     inkscape:pageshadow="0"
     inkscape:pageopacity="0"
     inkscape:pagecheckerboard="0"
     inkscape:document-units="mm"
     showgrid="true"
     units="px"
     inkscape:zoom="0.77682379"
     inkscape:cx="433.17417"
     inkscape:cy="345.63823"
     inkscape:window-width="1920"
     inkscape:window-height="1057"
     inkscape:window-x="1072"
     inkscape:window-y="379"
     inkscape:window-maximized="1"
     inkscape:current-layer="layer1" />
  <defs
     id="defs2" />
  <g
     inkscape:label="Layer 1"
     inkscape:groupmode="layer"
     id="layer1">
    <text
       xml:space="preserve"
       style="font-style:normal;font-weight:normal;font-size:10.5833px;line-height:1.25;font-family:sans-serif;fill:#000000;fill-opacity:1;stroke:none;stroke-width:0.264583"
       x="77.315361"
       y="143.39105"
       id="text62523"><tspan
         sodipodi:role="line"
         id="tspan62521"
         style="stroke-width:0.264583" /></text>
    <g
       id="g26010"
       transform="translate(-4.7499342)">
      <path
         style="fill:#000000;fill-opacity:1;stroke:none;stroke-width:0.264583px;stroke-linecap:butt;stroke-linejoin:miter;stroke-opacity:1"
         d="M 11.788775,110.79427 V 98.755729 h 2.645833 L 11.788775,96.109896 V 84.335937 l 2.645833,-2.645833 H 209.37776 l -6.11188,16.589375 V 129.97656 H 59.465104 v -19.18229 z"
         id="path47485"
         sodipodi:nodetypes="cccccccccccc" />
      <text
         xml:space="preserve"
         style="font-style:normal;font-weight:normal;font-size:26.4583px;line-height:0;font-family:sans-serif;fill:#000000;fill-opacity:1;stroke:none;stroke-width:4.23333;stroke-miterlimit:4;stroke-dasharray:none"
         x="208.55753"
         y="104.17968"
         id="text1023"><tspan
           sodipodi:role="line"
           id="tspan1021"
           style="font-style:normal;font-variant:normal;font-weight:normal;font-stretch:normal;font-size:26.4583px;line-height:1.25;font-family:Satisfontory;-inkscape-font-specification:Satisfontory;text-align:end;text-anchor:end;fill:#ffffff;fill-opacity:1;stroke:none;stroke-width:4.23333;stroke-linejoin:bevel;stroke-miterlimit:4;stroke-dasharray:none;stroke-opacity:1;paint-order:stroke markers fill"
           x="208.55753"
           y="104.17968"
           dx="0 0 -4 0 0 0 -5.5">Satisfactory</tspan><tspan
           sodipodi:role="line"
           style="font-style:normal;font-variant:normal;font-weight:normal;font-stretch:normal;font-size:15.875px;line-height:1;font-family:Satisfontory;-inkscape-font-specification:Satisfontory;text-align:end;text-anchor:end;fill:#ffffff;fill-opacity:1;stroke:none;stroke-width:4.23333;stroke-linejoin:bevel;stroke-miterlimit:4;stroke-dasharray:none;stroke-opacity:1;paint-order:stroke markers fill"
           x="211.34805"
           y="120.3809"
           id="tspan11938"><tspan
             style="font-size:7.9375px;stroke:none;stroke-width:4.23333;stroke-linejoin:bevel;stroke-miterlimit:4;stroke-dasharray:none;stroke-opacity:1;paint-order:stroke markers fill"
             id="tspan41940"
             rotate="0 0"> </tspan></tspan></text>
      <g
         aria-label="Satisfactory
 "
         id="text1023-4"
         style="font-size:26.4583px;stroke-width:4.23333">
        <path
           d="m 23.748049,83.01304 h -6.455825 c -1.164165,0 -2.143122,0.423333 -2.963329,1.24354 -0.820208,0.820208 -1.217082,1.799165 -1.217082,2.936872 v 6.720408 c 0,1.428748 0.502707,2.64583 1.508123,3.651245 1.005415,1.005415 2.222497,1.508123 3.651245,1.508123 h 3.88937 v 4.630202 h -3.280829 v -3.62479 h -5.767909 v 9.3927 H 27.928461 V 98.72927 98.70281 c 0,-1.481665 -0.529166,-2.751663 -1.587498,-3.809995 -1.058332,-1.058332 -2.354789,-1.587498 -3.836454,-1.587498 h -3.624787 v -4.52437 h 3.280829 v 3.624788 h 5.76791 V 87.19345 c 0,-1.137707 -0.423333,-2.116664 -1.24354,-2.936872 -0.820208,-0.820207 -1.799165,-1.24354 -2.936872,-1.24354 z"
           style="-inkscape-font-specification:Satisfontory;fill:#ffffff;stroke-linejoin:bevel;paint-order:stroke markers fill"
           id="path25333" />
        <path
           d="m 47.507583,109.47134 -5.76791,-26.4583 h -1.137707 -4.630202 -1.137707 l -5.767909,26.4583 h 5.767909 l 3.439579,-15.822063 1.349373,6.2177 h -1.613956 l -1.825623,5.767913 h 4.709578 l 0.846665,3.83645 z"
           style="-inkscape-font-specification:Satisfontory;fill:#ffffff;stroke-linejoin:bevel;paint-order:stroke markers fill"
           id="path25335" />
        <path
           d="m 52.106525,109.47134 h 5.767909 V 88.886783 l -5.767909,0.899582 z M 44.539451,88.780949 H 65.018175 V 83.01304 H 44.539451 Z"
           style="-inkscape-font-specification:Satisfontory;fill:#ffffff;stroke-linejoin:bevel;paint-order:stroke markers fill"
           id="path25337" />
        <path
           d="m 66.288128,109.47134 h 5.767909 v -26.4583 h -5.767909 z"
           style="-inkscape-font-specification:Satisfontory;fill:#ffffff;stroke-linejoin:bevel;paint-order:stroke markers fill"
           id="path25339" />
        <path
           d="m 84.015181,83.01304 h -6.455825 c -1.164165,0 -2.143122,0.423333 -2.96333,1.24354 -0.820207,0.820208 -1.217081,1.799165 -1.217081,2.936872 v 6.720408 c 0,1.428748 0.502707,2.64583 1.508123,3.651245 1.005415,1.005415 2.222497,1.508123 3.651245,1.508123 h 3.88937 v 4.630202 h -3.280829 v -3.62479 h -5.767909 v 9.3927 H 88.195592 V 98.72927 98.70281 c 0,-1.481665 -0.529166,-2.751663 -1.587498,-3.809995 -1.058332,-1.058332 -2.354788,-1.587498 -3.836453,-1.587498 h -3.624787 v -4.52437 h 3.280829 v 3.624788 h 5.767909 V 87.19345 c 0,-1.137707 -0.423332,-2.116664 -1.24354,-2.936872 -0.820207,-0.820207 -1.799164,-1.24354 -2.936871,-1.24354 z"
           style="-inkscape-font-specification:Satisfontory;fill:#ffffff;stroke-linejoin:bevel;paint-order:stroke markers fill"
           id="path25341" />
        <path
           d="m 95.259941,83.01304 h -3.386663 -2.381247 v 26.4583 h 5.76791 V 88.780949 h 8.704779 l 1.34937,-5.767909 z m 0.449791,17.40956 h 5.767908 l 1.13771,-5.767908 h -6.217702 z"
           style="-inkscape-font-specification:Satisfontory;fill:#ffffff;stroke-linejoin:bevel;paint-order:stroke markers fill"
           id="path25343" />
        <path
           d="m 119.20801,109.47134 -5.76791,-26.4583 h -1.1377 -4.63021 -1.1377 l -5.76791,26.4583 h 5.76791 l 3.43958,-15.822063 1.34937,6.2177 h -1.61396 l -1.82562,5.767913 h 4.70958 l 0.84666,3.83645 z"
           style="-inkscape-font-specification:Satisfontory;fill:#ffffff;stroke-linejoin:bevel;paint-order:stroke markers fill"
           id="path25345" />
        <path
           d="M 135.03007,92.405737 V 83.01304 h -10.29228 c -1.21708,0 -2.27541,0.449791 -3.12208,1.296457 -0.87312,0.873124 -1.29645,1.904997 -1.29645,3.122079 v 22.039764 h 10.29227 c 1.21709,0 2.24896,-0.42333 3.12208,-1.29646 0.84667,-0.84666 1.29646,-1.90499 1.29646,-3.12208 v -4.97416 h -5.76791 v 3.62479 h -3.17499 V 88.780949 h 3.17499 v 3.624788 z"
           style="-inkscape-font-specification:Satisfontory;fill:#ffffff;stroke-linejoin:bevel;paint-order:stroke markers fill"
           id="path25347" />
        <path
           d="m 143.84065,109.47134 h 5.76791 V 88.886783 l -5.76791,0.899582 z M 136.27358,88.780949 H 156.7523 V 83.01304 h -20.47872 z"
           style="-inkscape-font-specification:Satisfontory;fill:#ffffff;stroke-linejoin:bevel;paint-order:stroke markers fill"
           id="path25349" />
        <path
           d="m 168.47329,83.01304 h -10.45103 v 22.09268 c 0,1.21708 0.42333,2.24896 1.27,3.09562 0.84666,0.84667 1.87854,1.27 3.09562,1.27 h 10.45103 V 87.37866 c 0,-1.190624 -0.44979,-2.222498 -1.29646,-3.069163 -0.84667,-0.846666 -1.87854,-1.296457 -3.06916,-1.296457 z m -4.68312,20.69039 V 88.780949 h 3.28083 v 14.922481 z"
           style="-inkscape-font-specification:Satisfontory;fill:#ffffff;stroke-linejoin:bevel;paint-order:stroke markers fill"
           id="path25351" />
        <path
           d="m 187.12637,97.48573 c 0.34395,-0.3175 0.635,-0.714374 0.87312,-1.190623 0.23813,-0.47625 0.42333,-0.952499 0.52917,-1.375832 0.10583,-0.423333 0.15875,-0.846666 0.21166,-1.322915 0.0529,-0.476249 0.0794,-0.793749 0.0794,-0.952499 0,-0.15875 0.0265,-0.291041 0.0265,-0.396874 V 83.01304 H 174.1354 v 26.4583 h 5.76791 V 88.780949 h 3.175 v 3.466038 l 0.0265,0.211666 c 0.0264,0.132292 0.0264,0.291041 -0.0265,0.502708 -0.0529,0.211666 -0.10584,0.449791 -0.21167,0.661457 -0.10583,0.211667 -0.3175,0.423333 -0.635,0.608541 -0.3175,0.211667 -0.71437,0.343958 -1.19062,0.423333 l -0.79375,5.767908 c 0.37042,0 0.71437,0.0265 1.00541,0.0794 0.29105,0.0529 0.58209,0.13229 0.89959,0.23812 0.29104,0.13229 0.52916,0.3175 0.68791,0.58208 0.15875,0.26459 0.23813,0.58209 0.23813,0.97896 v 7.1702 h 5.76791 v -6.72041 -0.74083 c 0,-0.47625 -0.15875,-1.16417 -0.42334,-2.03729 -0.29104,-0.873124 -0.71437,-1.693331 -1.29645,-2.48708 z"
           style="-inkscape-font-specification:Satisfontory;fill:#ffffff;stroke-linejoin:bevel;paint-order:stroke markers fill"
           id="path25353" />
        <path
           d="m 189.95737,83.01304 6.2177,15.266439 v 11.191861 h 5.76791 V 98.279479 L 195.93694,83.01304 Z m 12.09144,0 -2.24896,5.979576 2.14313,8.942905 6.11186,-14.922481 z"
           style="-inkscape-font-specification:Satisfontory;fill:#ffffff;stroke-linejoin:bevel;paint-order:stroke markers fill"
           id="path25355" />
      </g>
      <text
         xml:space="preserve"
         style="font-style:normal;font-weight:normal;font-size:26.4583px;line-height:0;font-family:sans-serif;fill:#000000;fill-opacity:1;stroke:none;stroke-width:4.23333;stroke-miterlimit:4;stroke-dasharray:none"
         x="202.97495"
         y="104.17968"
         id="text1023-1"><tspan
           sodipodi:role="line"
           id="tspan1021-0"
           style="font-style:normal;font-variant:normal;font-weight:normal;font-stretch:normal;font-size:26.4583px;line-height:1.25;font-family:Satisfontory;-inkscape-font-specification:Satisfontory;text-align:end;text-anchor:end;fill:#ffffff;fill-opacity:1;stroke:none;stroke-width:4.23333;stroke-linejoin:bevel;stroke-miterlimit:4;stroke-dasharray:none;stroke-opacity:1;paint-order:stroke markers fill"
           x="202.97495"
           y="104.17968" /><tspan
           sodipodi:role="line"
           style="font-style:normal;font-variant:normal;font-weight:normal;font-stretch:normal;font-size:15.875px;line-height:1;font-family:Satisfontory;-inkscape-font-specification:Satisfontory;text-align:end;text-anchor:end;fill:#ffffff;fill-opacity:1;stroke:none;stroke-width:4.23333;stroke-linejoin:bevel;stroke-miterlimit:4;stroke-dasharray:none;stroke-opacity:1;paint-order:stroke markers fill"
           x="202.97496"
           y="125.47863"
           id="tspan11938-0"
           dy="0 0 2"><tspan
             style="font-size:10.5833px;line-height:1;stroke:none;stroke-width:4.23333;stroke-linejoin:bevel;stroke-miterlimit:4;stroke-dasharray:none;stroke-opacity:1;paint-order:stroke markers fill"
             id="tspan22320-9"
             dy="-2">⬢ </tspan><tspan
             style="fill:#fa9549;fill-opacity:1"
             id="tspan55301-1">Clips Archive</tspan><tspan
             style="font-size:10.5833px;stroke:none;stroke-width:4.23333;stroke-linejoin:bevel;stroke-miterlimit:4;stroke-dasharray:none;stroke-opacity:1;paint-order:stroke markers fill"
             id="tspan41940-9"
             dy="0 -2"
             rotate="0 0 0"> ⬢<tspan
   style="font-size:7.9375px"
   id="tspan49027-4" /></tspan></tspan></text>
      <text
         xml:space="preserve"
         style="font-style:normal;font-weight:normal;font-size:26.4583px;line-height:0;font-family:sans-serif;fill:#000000;fill-opacity:1;stroke:none;stroke-width:4.23333;stroke-miterlimit:4;stroke-dasharray:none"
         x="202.97495"
         y="104.17968"
         id="text1023-1-2"><tspan
           sodipodi:role="line"
           id="tspan1021-0-6"
           style="font-style:normal;font-variant:normal;font-weight:normal;font-stretch:normal;font-size:26.4583px;line-height:1.25;font-family:Satisfontory;-inkscape-font-specification:Satisfontory;text-align:end;text-anchor:end;fill:#ffffff;fill-opacity:1;stroke:none;stroke-width:4.23333;stroke-linejoin:bevel;stroke-miterlimit:4;stroke-dasharray:none;stroke-opacity:1;paint-order:stroke markers fill"
           x="202.97495"
           y="104.17968" /><tspan
           sodipodi:role="line"
           style="font-style:normal;font-variant:normal;font-weight:normal;font-stretch:normal;font-size:15.875px;line-height:1;font-family:Satisfontory;-inkscape-font-specification:Satisfontory;text-align:end;text-anchor:end;fill:none;fill-opacity:1;stroke:none;stroke-width:4.23333;stroke-linejoin:bevel;stroke-miterlimit:4;stroke-dasharray:none;stroke-opacity:1;paint-order:stroke markers fill"
           x="202.97495"
           y="125.47863"
           id="tspan11938-0-7"
           dy="0 0 2"><tspan
   style="font-size:10.5833px;line-height:1;fill:none;stroke:none;stroke-width:4.23333;stroke-linejoin:bevel;stroke-miterlimit:4;stroke-dasharray:none;stroke-opacity:1;paint-order:stroke markers fill"
   id="tspan22320-9-8"
   dy="-2">⬢</tspan><tspan
   style="letter-spacing:-1.85208px;fill:none"
   id="tspan94962"> </tspan>Clips Archive<tspan
   style="font-size:10.5833px;fill:none;stroke:none;stroke-width:4.23333;stroke-linejoin:bevel;stroke-miterlimit:4;stroke-dasharray:none;stroke-opacity:1;paint-order:stroke markers fill"
   id="tspan41940-9-3"
   dy="0 -2"
   rotate="0 0 0"> ⬢</tspan></tspan></text>
    </g>
  </g>
</svg>
