<?xml version="1.0" encoding="UTF-8" standalone="no"?>
<svg
   xmlns:dc="http://purl.org/dc/elements/1.1/"
   xmlns:cc="http://creativecommons.org/ns#"
   xmlns:rdf="http://www.w3.org/1999/02/22-rdf-syntax-ns#"
   xmlns:svg="http://www.w3.org/2000/svg"
   xmlns="http://www.w3.org/2000/svg"
   xmlns:sodipodi="http://sodipodi.sourceforge.net/DTD/sodipodi-0.dtd"
   xmlns:inkscape="http://www.inkscape.org/namespaces/inkscape"
   width="800"
   height="800"
   viewBox="0 0 211.66666 211.66667"
   version="1.1"
   id="svg8"
   inkscape:version="1.0.1 (3bc2e813f5, 2020-09-07)"
   sodipodi:docname="logo.svg"
   inkscape:export-filename="D:\_git\signpostmarv\media-search-archive\images\internal\logo.png"
   inkscape:export-xdpi="96"
   inkscape:export-ydpi="96">
  <defs
     id="defs2">
    <rect
       x="0"
       y="0"
       width="211.66666"
       height="211.66666"
       id="rect856" />
  </defs>
  <sodipodi:namedview
     id="base"
     pagecolor="#ffffff"
     bordercolor="#666666"
     borderopacity="1.0"
     inkscape:pageopacity="0.0"
     inkscape:pageshadow="2"
     inkscape:zoom="0.7"
     inkscape:cx="378.10637"
     inkscape:cy="488.19135"
     inkscape:document-units="mm"
     inkscape:current-layer="layer1"
     inkscape:document-rotation="0"
     showgrid="false"
     units="px"
     inkscape:window-width="1858"
     inkscape:window-height="1057"
     inkscape:window-x="54"
     inkscape:window-y="-8"
     inkscape:window-maximized="1">
    <inkscape:grid
       type="xygrid"
       id="grid850"
       spacingx="211.66666"
       spacingy="211.66666" />
  </sodipodi:namedview>
  <metadata
     id="metadata5">
    <rdf:RDF>
      <cc:Work
         rdf:about="">
        <dc:format>image/svg+xml</dc:format>
        <dc:type
           rdf:resource="http://purl.org/dc/dcmitype/StillImage" />
        <dc:title></dc:title>
      </cc:Work>
    </rdf:RDF>
  </metadata>
  <g
     inkscape:label="Layer 1"
     inkscape:groupmode="layer"
     id="layer1">
    <circle
       style="fill:#5d658b;stroke:none;stroke-width:1.05833;stroke-linecap:round;paint-order:markers stroke fill;fill-opacity:1"
       id="path852"
       cx="105.83333"
       cy="105.83333"
       r="105.83333" />
    <g
       aria-label="Q&amp;A
Clips
Archive"
       id="text844"
       style="font-size:32.5071px;line-height:1;font-family:Orbitron;-inkscape-font-specification:Orbitron;letter-spacing:0px;word-spacing:0px;fill:#fbedd8;fill-opacity:1;stroke:none;stroke-width:0.529167;stroke-miterlimit:4;stroke-dasharray:none;stroke-opacity:1">
      <path
         d="m 47.034373,80.408394 q -3.172702,0 -5.461208,-2.236495 -2.236494,-2.288506 -2.236494,-5.461207 V 50.657815 q 0,-3.172701 2.236494,-5.409196 2.288506,-2.288506 5.461208,-2.288506 h 22.000865 q 3.172702,0 5.461208,2.288506 2.288506,2.236495 2.288506,5.409196 V 72.2946 h 4.264943 v 8.113794 z m 2.08046,-8.113794 h 17.787933 q 1.71638,0 1.71638,0 0,0 0,-1.71638 V 52.790287 q 0,-1.71638 0,-1.71638 0,0 -1.71638,0 H 49.114833 q -1.716379,0 -1.716379,0 0,0 0,1.71638 V 70.57822 q 0,1.71638 0,1.71638 0,0 1.716379,0 z"
         style="font-style:normal;font-variant:normal;font-weight:900;font-stretch:normal;font-size:52.0115px;font-family:Orbitron;-inkscape-font-specification:'Orbitron Heavy';text-align:center;text-anchor:middle;fill:#fbedd8;fill-opacity:1;stroke:none;stroke-width:0.529167;stroke-miterlimit:4;stroke-dasharray:none;stroke-opacity:1"
         id="path1028" />
      <path
         d="m 92.804434,80.408394 q -3.068678,0 -5.305173,-2.184483 -2.236494,-2.184483 -2.236494,-5.357185 v -9.622128 q 0,-1.144253 0.572126,-2.392529 0.572127,-1.248276 1.664368,-1.976437 -0.36408,-0.884195 -0.36408,-2.756609 v -5.565231 q 0,-3.224713 2.236494,-5.357185 2.236495,-2.184483 5.305173,-2.184483 h 18.360062 q 2.75661,0 4.88908,1.768391 2.18448,1.768392 2.65259,4.420978 v 4.577012 h -7.95776 v -1.04023 q 0,-1.716379 0,-1.716379 0,0 -1.71638,0 H 96.80932 q -1.716379,0 -1.716379,0 0,0 0,1.716379 v 3.900863 l 18.932189,9.518105 V 61.21615 h 7.95776 v 8.373852 l 5.98132,3.536782 v 8.217817 l -7.28161,-4.16092 q -1.09224,1.456322 -2.75661,2.340517 -1.66437,0.884196 -3.48477,0.884196 z m 2.08046,-7.95776 h 13.314946 q 1.30029,0 1.04023,0 -0.26006,0 1.04023,0 L 94.104722,64.284828 93.324549,63.868736 q -0.104023,0 -0.104023,0.208046 0,0.208046 0,2.236495 v 4.108909 q 0,2.028448 0,2.028448 0,0 1.664368,0 z"
         style="font-style:normal;font-variant:normal;font-weight:900;font-stretch:normal;font-size:52.0115px;font-family:Orbitron;-inkscape-font-specification:'Orbitron Heavy';text-align:center;text-anchor:middle;fill:#fbedd8;fill-opacity:1;stroke:none;stroke-width:0.529167;stroke-miterlimit:4;stroke-dasharray:none;stroke-opacity:1"
         id="path1030" />
      <path
         d="M 134.30959,80.408394 V 50.657815 q 0,-3.172701 2.2365,-5.409196 2.2885,-2.288506 5.46121,-2.288506 h 22.00086 q 3.1727,0 5.46121,2.288506 2.28851,2.236495 2.28851,5.409196 v 29.750579 h -8.16581 V 68.341726 h -21.22069 v 12.066668 z m 8.06179,-20.180463 h 21.22069 v -7.437644 q 0,-1.71638 0,-1.71638 0,0 -1.71638,0 h -17.78793 q -1.71638,0 -1.71638,0 0,0 0,1.71638 z"
         style="font-style:normal;font-variant:normal;font-weight:900;font-stretch:normal;font-size:52.0115px;font-family:Orbitron;-inkscape-font-specification:'Orbitron Heavy';text-align:center;text-anchor:middle;fill:#fbedd8;fill-opacity:1;stroke:none;stroke-width:0.529167;stroke-miterlimit:4;stroke-dasharray:none;stroke-opacity:1"
         id="path1032" />
      <path
         d="m 43.757769,132.4199 q -3.172701,0 -5.461207,-2.2365 -2.236495,-2.28851 -2.236495,-5.46121 v -22.05287 q 0,-3.172705 2.236495,-5.4092 2.288506,-2.288506 5.461207,-2.288506 h 29.646556 v 8.113796 H 45.838229 q -1.716379,0 -1.716379,0 0,0 0,1.71638 v 17.78793 q 0,1.71638 0,1.71638 0,0 1.716379,0 h 27.566096 v 8.1138 z"
         style="font-style:normal;font-variant:normal;font-weight:900;font-stretch:normal;font-size:52.0115px;font-family:Orbitron;-inkscape-font-specification:'Orbitron Heavy';text-align:center;text-anchor:middle;fill:#fbedd8;fill-opacity:1;stroke:none;stroke-width:0.529167;stroke-miterlimit:4;stroke-dasharray:none;stroke-opacity:1"
         id="path1034" />
      <path
         d="m 86.147069,132.4199 q -3.068679,0 -5.305173,-2.2365 -2.236495,-2.23649 -2.236495,-5.30517 V 92.319028 h 8.009771 v 30.426732 q 0,1.71638 0,1.71638 0,0 1.71638,0 h 4.368966 v 7.95776 z"
         style="font-style:normal;font-variant:normal;font-weight:900;font-stretch:normal;font-size:52.0115px;font-family:Orbitron;-inkscape-font-specification:'Orbitron Heavy';text-align:center;text-anchor:middle;fill:#fbedd8;fill-opacity:1;stroke:none;stroke-width:0.529167;stroke-miterlimit:4;stroke-dasharray:none;stroke-opacity:1"
         id="path1036" />
      <path
         d="m 97.693551,132.4199 v -30.16668 h 7.957759 v 30.16668 z m 0,-32.03909 v -8.009771 h 7.957759 v 8.009771 z"
         style="font-style:normal;font-variant:normal;font-weight:900;font-stretch:normal;font-size:52.0115px;font-family:Orbitron;-inkscape-font-specification:'Orbitron Heavy';text-align:center;text-anchor:middle;fill:#fbedd8;fill-opacity:1;stroke:none;stroke-width:0.529167;stroke-miterlimit:4;stroke-dasharray:none;stroke-opacity:1"
         id="path1038" />
      <path
         d="m 110.74827,144.38254 v -42.12932 h 23.0411 q 3.12069,0 5.30517,2.2365 2.2365,2.23649 2.2365,5.30517 v 15.08334 q 0,3.06868 -2.2365,5.30517 -2.18448,2.2365 -5.30517,2.2365 h -15.08334 v 11.96264 z m 9.67414,-19.9204 h 11.23449 q 1.71638,0 1.71638,0 0,0 0,-1.71638 v -10.8184 q 0,-1.71638 0,-1.71638 0,0 -1.71638,0 h -11.23449 q -1.71638,0 -1.71638,0 0,0 0,1.71638 v 10.8184 q 0,1.71638 0,1.71638 0,0 1.71638,0 z"
         style="font-style:normal;font-variant:normal;font-weight:900;font-stretch:normal;font-size:52.0115px;font-family:Orbitron;-inkscape-font-specification:'Orbitron Heavy';text-align:center;text-anchor:middle;fill:#fbedd8;fill-opacity:1;stroke:none;stroke-width:0.529167;stroke-miterlimit:4;stroke-dasharray:none;stroke-opacity:1"
         id="path1040" />
      <path
         d="m 152.51349,132.4199 q -3.06868,0 -5.30518,-2.2365 -2.23649,-2.23649 -2.23649,-5.30517 v -1.50834 h 7.95776 v 0.26006 q 0,0.83219 0,0.83219 0,0 0.83218,0 h 13.00288 q 0.83218,0 0.83218,0 0,0 0,-0.83219 v -1.45632 q 0,-0.83218 0,-0.83218 0,0 -0.83218,0 h -14.25115 q -3.06868,0 -5.30518,-2.2365 -2.23649,-2.23649 -2.23649,-5.30517 v -4.00489 q 0,-3.06868 2.23649,-5.30517 2.2365,-2.2365 5.30518,-2.2365 h 15.49942 q 3.12069,0 5.35719,2.2365 2.23649,2.23649 2.23649,5.30517 v 1.50834 h -8.00977 v -0.26006 q 0,-0.83219 0,-0.83219 0,0 -0.83218,0 h -13.00288 q -0.83218,0 -0.83218,0 0,0 0,0.83219 v 1.45632 q 0,0.83218 0,0.83218 0,0 0.83218,0 h 14.25115 q 3.12069,0 5.35719,2.2365 2.23649,2.23649 2.23649,5.30517 v 4.00489 q 0,3.06868 -2.23649,5.30517 -2.2365,2.2365 -5.35719,2.2365 z"
         style="font-style:normal;font-variant:normal;font-weight:900;font-stretch:normal;font-size:52.0115px;font-family:Orbitron;-inkscape-font-specification:'Orbitron Heavy';text-align:center;text-anchor:middle;fill:#fbedd8;fill-opacity:1;stroke:none;stroke-width:0.529167;stroke-miterlimit:4;stroke-dasharray:none;stroke-opacity:1"
         id="path1042" />
      <path
         d="m 36.232519,168.70656 v -18.59407 q 0,-1.98293 1.397806,-3.38073 1.430312,-1.43032 3.413245,-1.43032 h 13.750503 q 1.982933,0 3.413245,1.43032 1.430313,1.3978 1.430313,3.38073 v 18.59407 h -5.103615 v -7.54165 H 41.27112 v 7.54165 z M 41.27112,156.0938 h 13.262896 v -4.64851 q 0,-1.07274 0,-1.07274 0,0 -1.072734,0 H 42.343854 q -1.072734,0 -1.072734,0 0,0 0,1.07274 z"
         style="font-style:normal;font-variant:normal;font-weight:900;font-stretch:normal;font-family:Orbitron;-inkscape-font-specification:'Orbitron Heavy';text-align:center;text-anchor:middle;fill:#fbedd8;fill-opacity:1;stroke:none;stroke-width:0.529167;stroke-miterlimit:4;stroke-dasharray:none;stroke-opacity:1"
         id="path1044" />
      <path
         d="m 63.213365,168.70656 v -14.14059 q 0,-1.91792 1.397805,-3.31573 1.397805,-1.3978 3.348231,-1.3978 h 10.402272 v 4.97358 h -9.101988 q -1.072734,0 -1.072734,0 0,0 0,1.07274 v 12.8078 z"
         style="font-style:normal;font-variant:normal;font-weight:900;font-stretch:normal;font-family:Orbitron;-inkscape-font-specification:'Orbitron Heavy';text-align:center;text-anchor:middle;fill:#fbedd8;fill-opacity:1;stroke:none;stroke-width:0.529167;stroke-miterlimit:4;stroke-dasharray:none;stroke-opacity:1"
         id="path1046" />
      <path
         d="m 84.993089,168.70656 q -1.917919,0 -3.315725,-1.39781 -1.397805,-1.39781 -1.397805,-3.31572 v -9.42706 q 0,-1.91792 1.397805,-3.31573 1.397806,-1.3978 3.315725,-1.3978 h 14.368137 v 4.97358 H 86.32588 q -1.072735,0 -1.072735,0 0,0 0,1.07274 v 6.76148 q 0,1.07273 0,1.07273 0,0 1.072735,0 h 13.067853 v 4.97359 z"
         style="font-style:normal;font-variant:normal;font-weight:900;font-stretch:normal;font-family:Orbitron;-inkscape-font-specification:'Orbitron Heavy';text-align:center;text-anchor:middle;fill:#fbedd8;fill-opacity:1;stroke:none;stroke-width:0.529167;stroke-miterlimit:4;stroke-dasharray:none;stroke-opacity:1"
         id="path1048" />
      <path
         d="m 102.02676,168.70656 v -25.03047 h 4.97359 v 6.17635 h 9.42706 q 1.91792,0 3.31572,1.3978 1.39781,1.39781 1.39781,3.31573 v 14.14059 h -4.97359 v -12.8078 q 0,-1.07274 0,-1.07274 0,0 -1.07273,0 h -7.02154 q -1.07273,0 -1.07273,0 0,0 0,1.07274 v 12.8078 z"
         style="font-style:normal;font-variant:normal;font-weight:900;font-stretch:normal;font-family:Orbitron;-inkscape-font-specification:'Orbitron Heavy';text-align:center;text-anchor:middle;fill:#fbedd8;fill-opacity:1;stroke:none;stroke-width:0.529167;stroke-miterlimit:4;stroke-dasharray:none;stroke-opacity:1"
         id="path1050" />
      <path
         d="m 123.67646,168.70656 v -18.85412 h 4.97359 v 18.85412 z m 0,-20.02438 v -5.00609 h 4.97359 v 5.00609 z"
         style="font-style:normal;font-variant:normal;font-weight:900;font-stretch:normal;font-family:Orbitron;-inkscape-font-specification:'Orbitron Heavy';text-align:center;text-anchor:middle;fill:#fbedd8;fill-opacity:1;stroke:none;stroke-width:0.529167;stroke-miterlimit:4;stroke-dasharray:none;stroke-opacity:1"
         id="path1052" />
      <path
         d="m 140.80759,168.70656 -10.36977,-18.85412 h 5.72125 l 6.79399,12.51523 6.79398,-12.51523 h 5.72125 l -10.40227,18.85412 z"
         style="font-style:normal;font-variant:normal;font-weight:900;font-stretch:normal;font-family:Orbitron;-inkscape-font-specification:'Orbitron Heavy';text-align:center;text-anchor:middle;fill:#fbedd8;fill-opacity:1;stroke:none;stroke-width:0.529167;stroke-miterlimit:4;stroke-dasharray:none;stroke-opacity:1"
         id="path1054" />
      <path
         d="m 160.83191,168.70656 q -1.91792,0 -3.31572,-1.39781 -1.39781,-1.39781 -1.39781,-3.31572 v -9.42706 q 0,-1.91792 1.39781,-3.31573 1.3978,-1.3978 3.31572,-1.3978 h 9.68712 q 1.95042,0 3.31572,1.3978 1.3978,1.39781 1.3978,3.31573 v 7.21657 h -14.14058 v 0.8777 q 0,1.07273 0,1.07273 0,0 1.07273,0 h 13.06785 v 4.97359 z m 0.26006,-11.27997 h 9.167 v -1.52783 q 0,-1.07274 0,-1.07274 0,0 -1.07274,0 h -7.02153 q -1.07273,0 -1.07273,0 0,0 0,1.07274 z"
         style="font-style:normal;font-variant:normal;font-weight:900;font-stretch:normal;font-family:Orbitron;-inkscape-font-specification:'Orbitron Heavy';text-align:center;text-anchor:middle;fill:#fbedd8;fill-opacity:1;stroke:none;stroke-width:0.529167;stroke-miterlimit:4;stroke-dasharray:none;stroke-opacity:1"
         id="path1056" />
    </g>
  </g>
</svg>
