<svg xmlns="http://www.w3.org/2000/svg" xmlns:xlink="http://www.w3.org/1999/xlink" width="800" height="800" viewBox="0 0 211.67 211.67"><defs><symbol id="a"><path fill="#fff" stroke-linejoin="bevel" stroke-width="4.23" d="M19 83.01h-6.46c-1.16 0-2.14.43-2.96 1.25a4 4 0 0 0-1.22 2.93v6.72c0 1.43.5 2.65 1.51 3.66 1 1 2.22 1.5 3.65 1.5h3.9v4.63h-3.29v-3.62H8.36v9.4h14.82V98.7a5.2 5.2 0 0 0-1.59-3.8 5.26 5.26 0 0 0-3.84-1.6h-3.62v-4.52h3.28v3.63h5.77v-5.22c0-1.13-.42-2.11-1.25-2.93A4.02 4.02 0 0 0 19 83z" font-size="26.46" paint-order="stroke markers fill" style="-inkscape-font-specification:Satisfontory"/></symbol><symbol id="b"><path fill="#fff" stroke-linejoin="bevel" stroke-width="4.23" d="m42.76 109.47-5.77-26.46h-6.91l-5.76 26.46h5.76l3.44-15.82 1.35 6.22h-1.61l-1.83 5.76h4.71l.85 3.84z" font-size="26.46" paint-order="stroke markers fill" style="-inkscape-font-specification:Satisfontory"/></symbol><symbol id="c"><path fill="#fff" stroke-linejoin="bevel" stroke-width="4.23" d="M47.36 109.47h5.76V88.9l-5.76.9zm-7.57-20.69h20.48v-5.77H39.79Z" font-size="26.46" paint-order="stroke markers fill" style="-inkscape-font-specification:Satisfontory"/></symbol><symbol id="e"><path fill="#fa9549" stroke-width="4.23" d="M88.33 128.65h3.46v-15.87h-3.46z" font-size="26.46"/></symbol><symbol id="d"><path fill="#fa9549" stroke-width="4.23" d="M77.8 118.41v-5.63h-6.17c-.73 0-1.37.27-1.87.78a2.54 2.54 0 0 0-.78 1.87v13.22h6.17A2.62 2.62 0 0 0 77.8 126v-2.98h-3.46v2.17h-1.9v-8.95h1.9v2.17z" font-size="26.46"/></symbol><symbol id="f"><path fill="#fff" stroke-linejoin="bevel" stroke-width="4.23" d="M63.92 117.73v4.08l-3.22 1.8-3.22-1.8v-4.08l3.22-1.8z" font-size="26.46" paint-order="stroke markers fill" style="-inkscape-font-specification:Satisfontory"/></symbol></defs><path d="M7.04 110.8V98.75h2.64L7.04 96.1V84.34l2.64-2.65h194.95l-6.11 16.59v31.7H54.72v-19.19z"/><path fill="#fff" d="M19 83.01h-6.46c-1.16 0-2.14.43-2.96 1.25a4 4 0 0 0-1.22 2.93v6.72c0 1.43.5 2.65 1.51 3.66 1 1 2.22 1.5 3.65 1.5h3.9v4.63h-3.29v-3.62H8.36v9.4h14.82V98.7a5.2 5.2 0 0 0-1.59-3.8 5.26 5.26 0 0 0-3.84-1.6h-3.62v-4.52h3.28v3.63h5.77v-5.22c0-1.13-.42-2.11-1.25-2.93A4.02 4.02 0 0 0 19 83zm23.76 26.46-5.77-26.46h-6.91l-5.76 26.46h5.76l3.44-15.82 1.35 6.22h-1.61l-1.83 5.76h4.71l.85 3.84zm4.6 0h5.76V88.9l-5.76.9zm-7.57-20.69h20.48v-5.77H39.79Zm21.75 20.69h5.77V83.01h-5.77zm17.73-26.46H72.8c-1.16 0-2.14.43-2.96 1.25a4 4 0 0 0-1.22 2.93v6.72c0 1.43.5 2.65 1.5 3.66 1.01 1 2.23 1.5 3.66 1.5h3.89v4.63H74.4v-3.62h-5.77v9.4h14.82V98.7a5.2 5.2 0 0 0-1.6-3.8 5.26 5.26 0 0 0-3.83-1.6H74.4v-4.52h3.28v3.63h5.77v-5.22c0-1.13-.43-2.11-1.25-2.93A4.02 4.02 0 0 0 79.27 83zm11.24 0h-5.77v26.46h5.77V88.78h8.7l1.35-5.77zm.45 17.41h5.77l1.14-5.77h-6.22zm23.5 9.05-5.77-26.46h-6.91l-5.76 26.46h5.76l3.44-15.82 1.35 6.22h-1.61l-1.83 5.76h4.71l.85 3.84zm15.82-17.07v-9.39h-10.3a4.3 4.3 0 0 0-3.11 1.3 4.2 4.2 0 0 0-1.3 3.12v22.04h10.3a4.2 4.2 0 0 0 3.11-1.3 4.3 4.3 0 0 0 1.3-3.12v-4.97h-5.77v3.62h-3.17V88.78h3.17v3.63zm8.82 17.07h5.76V88.9l-5.77.9zm-7.58-20.69H152v-5.77h-20.48zm32.2-5.77h-10.45v22.1c0 1.21.43 2.24 1.27 3.1a4.21 4.21 0 0 0 3.1 1.26h10.45v-22.1c0-1.18-.45-2.21-1.3-3.06a4.22 4.22 0 0 0-3.07-1.3zm-4.68 20.7V88.77h3.28v14.92zm23.34-6.22c.34-.32.63-.72.87-1.2a6.94 6.94 0 0 0 .74-2.7c.05-.47.08-.79.08-.95 0-.15.03-.29.03-.4v-9.23h-14.71v26.46h5.76V88.78h3.18v3.47l.02.2c.03.14.03.3-.02.51-.05.21-.1.45-.21.66-.1.21-.32.43-.64.61-.32.21-.71.35-1.19.42l-.8 5.77a5.74 5.74 0 0 1 1.91.32c.3.13.53.32.69.58.16.27.24.58.24.98v7.17h5.77v-7.46a8.95 8.95 0 0 0-1.72-4.52zm2.82-14.48 6.23 15.27v11.2h5.76v-11.2l-6-15.27Zm12.1 0L195.05 89l2.14 8.95L203.3 83z" aria-label="Satisfactory" font-size="26.46" paint-order="stroke markers fill" style="-inkscape-font-specification:Satisfontory"/><path fill="#fff" d="M61.54 109.47h5.77V83.01h-5.77z" font-size="26.46" paint-order="stroke markers fill" style="-inkscape-font-specification:Satisfontory"/><use xlink:href="#a" width="100%" height="100%" transform="translate(60.27)"/><path fill="#fff" d="M90.51 83.01h-5.77v26.46h5.77V88.78h8.7l1.35-5.77zm.45 17.41h5.77l1.14-5.77h-6.22z" font-size="26.46" paint-order="stroke markers fill" style="-inkscape-font-specification:Satisfontory"/><use xlink:href="#b" width="100%" height="100%" transform="translate(71.7)"/><path fill="#fff" d="M130.28 92.4v-9.39h-10.3a4.3 4.3 0 0 0-3.11 1.3 4.2 4.2 0 0 0-1.3 3.12v22.04h10.3a4.2 4.2 0 0 0 3.11-1.3 4.3 4.3 0 0 0 1.3-3.12v-4.97h-5.77v3.62h-3.17V88.78h3.17v3.63z" font-size="26.46" paint-order="stroke markers fill" style="-inkscape-font-specification:Satisfontory"/><use xlink:href="#c" width="100%" height="100%" transform="translate(91.73)"/><path fill="#fff" d="M163.72 83.01h-10.45v22.1c0 1.21.43 2.24 1.27 3.1a4.21 4.21 0 0 0 3.1 1.26h10.45v-22.1c0-1.18-.45-2.21-1.3-3.06a4.22 4.22 0 0 0-3.07-1.3zm-4.68 20.7V88.77h3.28v14.92zm23.34-6.22c.34-.32.63-.72.87-1.2a6.94 6.94 0 0 0 .74-2.7c.05-.47.08-.79.08-.95 0-.15.03-.29.03-.4v-9.23h-14.71v26.46h5.76V88.78h3.18v3.47l.02.2c.03.14.03.3-.02.51-.05.21-.1.45-.21.66-.1.21-.32.43-.64.61-.32.21-.71.35-1.19.42l-.8 5.77a5.74 5.74 0 0 1 1.91.32c.3.13.53.32.69.58.16.27.24.58.24.98v7.17h5.77v-7.46a8.95 8.95 0 0 0-1.72-4.52zm2.82-14.48 6.23 15.27v11.2h5.76v-11.2l-6-15.27Zm12.1 0L195.05 89l2.14 8.95L203.3 83z" font-size="26.46" paint-order="stroke markers fill" style="-inkscape-font-specification:Satisfontory"/><path fill="#fa9549" d="M78.6 128.65h3.46v-15.87H78.6zm4.27-3.46-.68 3.46h4.8l.67-3.46zm15.91-12.41h-6.2v15.87h3.47v-12.41h1.9v3.52h-.94l-.68 3.46h5.08v-7.82a2.5 2.5 0 0 0-.78-1.84 2.5 2.5 0 0 0-1.85-.78zm9.79 0h-3.87c-.7 0-1.29.25-1.78.74a2.4 2.4 0 0 0-.73 1.77v4.03c0 .86.3 1.59.9 2.19a3 3 0 0 0 2.2.9h2.33v2.78h-1.97v-2.17h-3.46v5.63h8.89v-6.46c0-.89-.32-1.65-.95-2.28a3.15 3.15 0 0 0-2.3-.96h-2.18v-2.71h1.97v2.17h3.46v-3.12c0-.69-.26-1.27-.75-1.77a2.41 2.41 0 0 0-1.76-.74zm22.39 15.87-3.46-15.87h-4.15l-3.46 15.87h3.46l2.07-9.49.8 3.73h-.96l-1.1 3.46H127l.5 2.3zm8.46-7.19c.2-.19.38-.43.52-.71a4.16 4.16 0 0 0 .45-1.62l.04-.57.02-.24v-5.54h-8.83v15.87h3.46v-12.41h1.9v2.08l.03.13c.01.08.01.17-.02.3-.03.12-.06.27-.13.4a.94.94 0 0 1-.38.36c-.19.13-.43.2-.71.25l-.48 3.46a3.45 3.45 0 0 1 1.14.2.9.9 0 0 1 .42.34c.1.16.14.35.14.6v4.3h3.46v-4.48a5.37 5.37 0 0 0-1.03-2.71z" font-size="26.46"/><use xlink:href="#d" width="100%" height="100%" transform="translate(72.23)"/><path fill="#fa9549" d="M157.02 112.78h-.82v6.98h-1.9v-6.98h-3.47v15.87h3.46v-5.43h1.9v5.43h3.47V115.4a2.5 2.5 0 0 0-.78-1.84 2.53 2.53 0 0 0-1.86-.78z" font-size="26.46"/><use xlink:href="#e" width="100%" height="100%" transform="translate(72.1)"/><path fill="#fa9549" d="m172.2 112.78-1.97 8.89 2.1 6.24 3.33-15.13zm-7.6 0 3.46 15.87h3.46l-3.46-15.87zm15.19 3.46H185l.81-3.46h-9.49v15.87H185l.81-3.46h-6.03zm3.73 6.98.68-3.46h-3.73l-.41 3.46z" font-size="26.46"/><use xlink:href="#f" width="100%" height="100%" transform="translate(133.33)"/><use xlink:href="#a"/><use xlink:href="#b"/><use xlink:href="#c"/><use xlink:href="#e"/><use xlink:href="#d"/><use xlink:href="#f"/></svg>